<svg width="1164" height="233" viewBox="0 0 1164 233" fill="none" xmlns="http://www.w3.org/2000/svg">
<g clip-path="url(#clip0_18_80)">
<path d="M114.63 60.9688C114.63 31.4063 90.6406 7.43756 61.0416 7.43756C31.4427 7.43756 7.44788 31.4063 7.44788 60.9688H114.63Z" fill="#E3A932"/>
<path d="M333.172 67.9011C336.016 70.7917 340.245 72.2344 345.844 72.2344C348.922 72.2344 351.677 71.6563 354.104 70.4896C356.531 69.323 358.771 67.573 360.823 65.2449C368.755 68.3178 378.042 70.9792 388.682 73.2136C385.604 80.3959 380.401 85.9896 373.073 90.0001C365.745 94.0053 356.25 96.0105 344.583 96.0105C328.995 96.0105 317.469 92.3751 310 85.1042C302.531 77.8334 298.802 68.2761 298.802 56.4324C298.802 44.5938 302.531 35.0365 310 27.7605C317.469 20.4896 328.995 16.8594 344.583 16.8594C356.25 16.8594 365.745 18.8594 373.073 22.8699C380.401 26.8803 385.604 32.474 388.682 39.6511C380.375 41.4219 371.089 44.0782 360.823 47.6251C358.771 45.2917 356.531 43.5469 354.104 42.3803C351.677 41.2136 348.922 40.6303 345.844 40.6303C340.245 40.6303 336.016 42.0782 333.172 44.9636C330.323 47.8594 328.807 51.6771 328.62 56.4324C328.807 61.1876 330.323 65.0105 333.172 67.9011Z" fill="#104953"/>
<path d="M458.406 67.9011C461.391 65.0105 462.885 61.1407 462.885 56.2917C462.885 51.7292 461.391 47.974 458.406 45.0365C455.417 42.099 450.891 40.6303 444.823 40.6303C438.755 40.6303 434.323 42.0782 431.526 44.9636C428.724 47.8594 427.323 51.6355 427.323 56.2917C427.323 61.1407 428.724 65.0105 431.526 67.9011C434.323 70.7917 438.755 72.2344 444.823 72.2344C450.891 72.2344 455.417 70.7917 458.406 67.9011ZM409.052 85.0313C401.536 77.7136 397.781 68.0886 397.781 56.1511C397.781 44.5001 401.536 35.0365 409.052 27.7605C416.568 20.4896 428.302 16.8594 444.266 16.8594C454.995 16.8594 463.979 18.6042 471.214 22.1042C478.448 25.5938 483.792 30.3074 487.245 36.224C490.698 42.1459 492.427 48.7865 492.427 56.1511C492.427 68.1824 488.438 77.8334 480.453 85.1042C472.474 92.3751 460.411 96.0105 444.266 96.0105C428.302 96.0105 416.568 92.3542 409.052 85.0313Z" fill="#104953"/>
<path d="M587.349 56.2917C587.349 69.9948 587.672 82.7709 588.328 94.6094C582.354 94.3334 577.635 94.1928 574.187 94.1928C570.917 94.1928 566.208 94.3334 560.047 94.6094L555.99 74.0521C553.839 81.5157 550.479 87.0365 545.906 90.625C541.333 94.2188 536.01 96.0105 529.948 96.0105C524.344 96.0105 519.49 94.7709 515.385 92.3021C511.276 89.8334 508.172 86.5 506.073 82.3073C503.974 78.1094 502.922 73.4011 502.922 68.1823V48.0417C502.922 35.6459 502.687 25.7136 502.224 18.2552H533.724C533.167 31.9584 532.885 45.5261 532.885 58.9532C532.885 63.0573 533.885 66.3177 535.896 68.7396C537.901 71.1667 540.448 72.375 543.526 72.375C546.417 72.375 548.958 71.0938 551.156 68.5313C553.349 65.9688 554.677 62.448 555.146 57.974V54.7553C555.333 47.4844 555.422 42.448 555.422 39.6511C555.422 33.2188 555.24 26.0834 554.865 18.2552H588.328C587.672 30 587.349 42.6823 587.349 56.2917Z" fill="#104953"/>
<path d="M654.13 94.6146C654.688 80.9063 654.969 68.2761 654.969 56.7136C654.969 52.6146 653.964 49.349 651.958 46.9271C649.948 44.5 647.406 43.2865 644.328 43.2865C641.25 43.2865 638.635 44.6667 636.484 47.4167C634.339 50.1615 633.078 53.9167 632.708 58.6719C632.521 65.7552 632.427 70.7917 632.427 73.7761C632.427 80.1146 632.615 87.0573 632.99 94.6146H599.526C600.271 81.1875 600.646 68.5104 600.646 56.5729C600.646 44.6406 600.271 31.8698 599.526 18.2552C605.688 18.5365 610.401 18.6771 613.667 18.6771C617.12 18.6771 621.828 18.5365 627.807 18.2552L631.87 38.8125C634.01 31.3542 637.37 25.8281 641.948 22.2396C646.521 18.6511 651.839 16.8542 657.906 16.8542C663.51 16.8542 668.359 18.0938 672.469 20.5625C676.573 23.0365 679.677 26.3646 681.776 30.5625C683.88 34.7604 684.932 39.4688 684.932 44.6823V64.8229C684.932 77.224 685.161 87.1511 685.63 94.6146H654.13Z" fill="#104953"/>
<mask id="mask0_18_80" style="mask-type:luminance" maskUnits="userSpaceOnUse" x="692" y="2" width="69" height="95">
<path d="M692.333 2.86981H760.333V96.3334H692.333V2.86981Z" fill="white"/>
</mask>
<g mask="url(#mask0_18_80)">
<path d="M760.25 43.2865C751.661 42.7292 743.823 42.3073 736.729 42.0313L736.589 56.8542C736.589 61.8854 737.687 65.8281 739.88 68.6719C742.073 71.5156 745.969 72.9375 751.573 72.9375C753.719 72.9375 755.771 72.75 757.729 72.375C757.354 75.8281 757.172 79.3229 757.172 82.8646C757.172 84.5417 757.266 88.3698 757.448 94.3334C753.344 95.0781 749.891 95.5417 747.089 95.7344C744.292 95.9167 740.651 96.0104 736.172 96.0104C725.25 96.0104 717.526 93.375 713 88.1094C708.469 82.8438 706.208 75.5 706.208 66.0834L706.349 42.4479C701.964 42.6354 697.391 42.9167 692.63 43.2865V18.5365C697.479 18.5365 701.589 16.9948 704.948 13.9167C708.312 10.8438 710.312 7.16148 710.969 2.86981H749.052C744.292 9.40106 739.016 14.6198 733.229 18.5365H760.25V43.2865Z" fill="#104953"/>
</g>
<path d="M804.354 40.6302C801.365 42.4011 799.26 44.8229 798.052 47.9063H831.094C829.974 44.9219 828.156 42.5209 825.635 40.7031C823.109 38.8802 819.844 37.974 815.828 37.974C811.167 37.974 807.333 38.8594 804.354 40.6302ZM842.714 59.6511H797.073C797.818 63.7552 799.661 67.0834 802.604 69.6459C805.547 72.2136 809.714 73.4948 815.13 73.4948C819.052 73.4948 822.74 72.724 826.188 71.1875C829.646 69.6459 832.396 67.4792 834.453 64.6823C840.703 67.7604 849.01 71.0729 859.375 74.6146C856.479 81.1406 851.234 86.3386 843.62 90.2084C836.021 94.0781 826.094 96.0104 813.87 96.0104C798.005 96.0104 786.271 92.3542 778.656 85.0313C771.052 77.7136 767.25 68.0886 767.25 56.1511C767.25 44.5 771.031 35.0365 778.589 27.7656C786.151 20.4896 797.911 16.8542 813.87 16.8542C823.391 16.8542 831.651 18.4427 838.651 21.6094C845.651 24.7813 851.016 29.1875 854.75 34.8281C858.484 40.4688 860.354 46.9219 860.354 54.1979C860.354 56.6198 860.255 58.4375 860.073 59.6511H842.714Z" fill="#104953"/>
<path d="M902.635 38.9532C906.557 24.875 916.302 17.8334 931.891 17.8334C934.594 17.8334 937.214 18.0209 939.734 18.3959L935.255 49.7188C928.536 47.2032 923.021 45.9427 918.74 45.9427C913.417 45.9427 909.49 47.5313 906.974 50.698C904.453 53.8698 903.193 58.1094 903.193 63.4271V63.2865L903.057 72.5157L903.063 94.6094H870.156C870.901 81.1875 871.271 68.5052 871.271 56.573C871.271 44.6407 870.901 31.8698 870.156 18.2552C876.312 18.5365 881.021 18.6771 884.292 18.6771C887.74 18.6771 892.458 18.5365 898.432 18.2552L902.635 38.9532Z" fill="#104953"/>
<path d="M353.406 225.208C353.964 211.5 354.245 198.87 354.245 187.307C354.245 183.208 353.24 179.943 351.234 177.521C349.224 175.094 346.682 173.88 343.604 173.88C340.526 173.88 337.911 175.26 335.76 178.01C333.615 180.76 332.354 184.51 331.984 189.266C331.792 196.354 331.703 201.385 331.703 204.37C331.703 210.714 331.885 217.656 332.266 225.208H298.802C299.547 211.781 299.922 199.104 299.922 187.167C299.922 175.234 299.547 162.464 298.802 148.849C304.964 149.13 309.677 149.271 312.943 149.271C316.391 149.271 321.109 149.13 327.083 148.849L331.141 169.406C333.286 161.948 336.646 156.427 341.224 152.839C345.797 149.25 351.115 147.453 357.182 147.453C362.781 147.453 367.635 148.688 371.745 151.156C375.849 153.63 378.953 156.958 381.052 161.156C383.156 165.354 384.203 170.063 384.203 175.281V195.422C384.203 207.818 384.437 217.75 384.906 225.208H353.406Z" fill="#104953"/>
<mask id="mask1_18_80" style="mask-type:luminance" maskUnits="userSpaceOnUse" x="393" y="147" width="100" height="80">
<path d="M393.667 147H492.333V226.87H393.667V147Z" fill="white"/>
</mask>
<g mask="url(#mask1_18_80)">
<path d="M445.807 200.104C450.005 198.104 452.896 195.469 454.484 192.203V188.568C452.245 189.688 449.771 190.547 447.068 191.151C444.359 191.76 441.094 192.344 437.266 192.901L432.224 193.74C426.995 194.766 424.385 196.537 424.385 199.052C424.385 201.76 426.813 203.109 431.667 203.109C436.891 203.109 441.604 202.109 445.807 200.104ZM433.766 174.443C430.125 176.026 426.854 178.406 423.964 181.573C429.568 180.922 436.563 180.594 444.969 180.594C448.417 180.594 450.844 180.177 452.245 179.339C453.646 178.5 454.344 177.427 454.344 176.12C454.344 175 453.646 174.047 452.245 173.255C450.844 172.464 448.885 172.063 446.365 172.063C441.604 172.063 437.406 172.859 433.766 174.443ZM485.844 201.995C485.844 205.167 486.219 207.401 486.964 208.703C487.714 210.01 489.208 210.943 491.448 211.5L490.885 224.651C487.901 225.115 485.307 225.438 483.115 225.625C480.922 225.813 478.005 225.906 474.365 225.906C466.339 225.906 461.016 224.115 458.406 220.521C455.792 216.938 454.484 212.344 454.484 206.75V203.25C451.776 210.896 447.833 216.583 442.656 220.313C437.474 224.042 430.87 225.906 422.844 225.906C413.51 225.906 406.484 224.042 401.771 220.313C397.057 216.583 394.703 211.037 394.703 203.672C394.703 197.609 396.708 192.854 400.724 189.406C404.734 185.958 410.948 183.578 419.344 182.276C412.25 177.24 405.156 172.859 398.063 169.125C403.667 162.047 410.057 156.662 417.245 152.974C424.432 149.292 433.156 147.453 443.427 147.453C457.797 147.453 468.464 150.552 475.417 156.75C482.365 162.953 485.844 172.484 485.844 185.349V201.995Z" fill="#104953"/>
</g>
<path d="M532.328 169.547C536.245 155.474 546 148.432 561.589 148.432C564.297 148.432 566.906 148.62 569.427 148.99L564.948 180.313C558.229 177.797 552.719 176.542 548.427 176.542C543.109 176.542 539.187 178.125 536.667 181.297C534.146 184.464 532.885 188.708 532.885 194.021V193.88L532.745 203.109C532.745 209.734 532.932 217.094 533.307 225.208H499.849C500.594 211.786 500.964 199.104 500.964 187.172C500.964 175.354 500.599 162.724 499.87 149.266L513.984 149.271C517.437 149.271 522.151 149.13 528.125 148.849L532.328 169.547Z" fill="#104953"/>
<path d="M613.109 169.547C617.031 155.474 626.781 148.432 642.37 148.432C645.078 148.432 647.693 148.62 650.214 148.99L645.729 180.313C639.01 177.797 633.5 176.542 629.208 176.542C623.891 176.542 619.969 178.125 617.448 181.297C614.927 184.464 613.672 188.708 613.672 194.021V193.88L613.531 203.109C613.531 209.734 613.719 217.094 614.089 225.208H580.63C581.375 211.786 581.75 199.104 581.75 187.172C581.75 175.354 581.38 162.724 580.651 149.266L594.771 149.271C598.224 149.271 602.937 149.13 608.911 148.849L613.109 169.547Z" fill="#104953"/>
<mask id="mask2_18_80" style="mask-type:luminance" maskUnits="userSpaceOnUse" x="651" y="147" width="99" height="80">
<path d="M651 147H749.667V226.87H651V147Z" fill="white"/>
</mask>
<g mask="url(#mask2_18_80)">
<path d="M702.714 200.104C706.911 198.104 709.807 195.469 711.396 192.203V188.568C709.151 189.688 706.677 190.547 703.974 191.151C701.266 191.76 698 192.344 694.172 192.901L689.135 193.74C683.901 194.766 681.292 196.537 681.292 199.052C681.292 201.76 683.719 203.109 688.573 203.109C693.797 203.109 698.51 202.109 702.714 200.104ZM690.672 174.443C687.036 176.026 683.766 178.406 680.87 181.573C686.469 180.922 693.474 180.594 701.875 180.594C705.323 180.594 707.755 180.177 709.151 179.339C710.557 178.5 711.255 177.427 711.255 176.12C711.255 175 710.557 174.047 709.151 173.255C707.755 172.464 705.792 172.063 703.276 172.063C698.51 172.063 694.313 172.859 690.672 174.443ZM742.755 201.995C742.755 205.167 743.125 207.401 743.875 208.703C744.62 210.01 746.115 210.943 748.354 211.5L747.797 224.651C744.807 225.115 742.214 225.438 740.026 225.625C737.833 225.813 734.917 225.906 731.276 225.906C723.245 225.906 717.927 224.115 715.313 220.521C712.698 216.938 711.396 212.344 711.396 206.75V203.25C708.688 210.896 704.745 216.583 699.563 220.313C694.385 224.042 687.781 225.906 679.75 225.906C670.417 225.906 663.391 224.042 658.682 220.313C653.969 216.583 651.609 211.037 651.609 203.672C651.609 197.609 653.62 192.854 657.63 189.406C661.646 185.958 667.854 183.578 676.255 182.276C669.161 177.24 662.062 172.859 654.974 169.125C660.573 162.047 666.964 156.662 674.151 152.974C681.339 149.292 690.063 147.453 700.333 147.453C714.708 147.453 725.37 150.552 732.323 156.75C739.276 162.953 742.755 172.484 742.755 185.349V201.995Z" fill="#104953"/>
</g>
<mask id="mask3_18_80" style="mask-type:luminance" maskUnits="userSpaceOnUse" x="752" y="132" width="69" height="95">
<path d="M752.333 132.333H820.333V226.87H752.333V132.333Z" fill="white"/>
</mask>
<g mask="url(#mask3_18_80)">
<path d="M820.177 173.88C811.589 173.323 803.75 172.901 796.651 172.625L796.516 187.448C796.516 192.484 797.609 196.422 799.807 199.266C801.995 202.109 805.896 203.531 811.495 203.531C813.641 203.531 815.698 203.349 817.656 202.969C817.281 206.422 817.094 209.917 817.094 213.458C817.094 215.135 817.187 218.964 817.38 224.927C813.271 225.672 809.812 226.141 807.021 226.328C804.219 226.51 800.578 226.604 796.099 226.604C785.172 226.604 777.453 223.974 772.927 218.708C768.396 213.438 766.135 206.094 766.135 196.677L766.276 173.042C761.885 173.229 757.318 173.51 752.552 173.88V149.13C757.406 149.13 761.516 147.594 764.875 144.516C768.234 141.438 770.24 137.755 770.896 133.469H808.979C804.219 139.995 798.943 145.214 793.156 149.13H820.177V173.88Z" fill="#104953"/>
</g>
<path d="M831.094 225.208C831.75 210.198 832.078 197.797 832.078 188.01C832.078 176.354 831.703 163.302 830.958 148.849H864.557C863.812 162.745 863.437 175.797 863.437 188.01C863.437 198.266 863.755 210.661 864.417 225.208H831.094ZM834.245 136.266C831.396 133.375 829.974 129.599 829.974 124.932C829.974 120.37 831.396 116.594 834.245 113.609C837.094 110.625 841.458 109.135 847.339 109.135C852.937 109.135 857.229 110.651 860.219 113.677C863.203 116.708 864.693 120.458 864.693 124.932C864.693 129.599 863.25 133.375 860.354 136.266C857.458 139.156 853.12 140.599 847.339 140.599C841.458 140.599 837.094 139.156 834.245 136.266Z" fill="#104953"/>
<path d="M962.604 167.396C955.255 187.662 948.568 206.927 942.536 225.208H898.719C892.365 205.958 885.661 186.708 878.62 167.458C875.307 158.422 881.974 148.849 891.604 148.849H894.109C900.312 148.849 905.76 152.969 907.443 158.932L920.833 206.469L934.115 158.958C935.781 152.984 941.229 148.849 947.443 148.849H949.594C959.203 148.849 965.875 158.38 962.604 167.396Z" fill="#104953"/>
<mask id="mask4_18_80" style="mask-type:luminance" maskUnits="userSpaceOnUse" x="965" y="147" width="96" height="80">
<path d="M965.667 147H1060.33V226.87H965.667V147Z" fill="white"/>
</mask>
<g mask="url(#mask4_18_80)">
<path d="M1003.72 171.224C1000.73 173 998.63 175.422 997.427 178.5H1030.46C1029.34 175.516 1027.52 173.115 1025.01 171.297C1022.48 169.474 1019.21 168.568 1015.2 168.568C1010.54 168.568 1006.71 169.458 1003.72 171.224ZM1042.08 190.245H996.443C997.187 194.349 999.031 197.677 1001.97 200.245C1004.91 202.813 1009.09 204.089 1014.51 204.089C1018.42 204.089 1022.11 203.323 1025.56 201.781C1029.01 200.245 1031.77 198.073 1033.82 195.281C1040.07 198.354 1048.38 201.667 1058.74 205.208C1055.85 211.74 1050.6 216.938 1042.99 220.802C1035.39 224.672 1025.46 226.604 1013.24 226.604C997.37 226.604 985.635 222.948 978.031 215.625C970.422 208.307 966.62 198.682 966.62 186.75C966.62 175.099 970.401 165.63 977.964 158.359C985.521 151.089 997.281 147.453 1013.24 147.453C1022.76 147.453 1031.03 149.037 1038.02 152.208C1045.03 155.375 1050.39 159.781 1054.12 165.422C1057.86 171.063 1059.72 177.521 1059.72 184.792C1059.72 187.219 1059.63 189.037 1059.44 190.245H1042.08Z" fill="#104953"/>
</g>
<mask id="mask5_18_80" style="mask-type:luminance" maskUnits="userSpaceOnUse" x="1067" y="147" width="92" height="80">
<path d="M1067 147H1159V226.87H1067V147Z" fill="white"/>
</mask>
<g mask="url(#mask5_18_80)">
<path d="M1090.88 223.318C1082.8 221.13 1075.21 217.797 1068.12 213.323L1082.82 193.323C1087.11 196.396 1092.29 198.802 1098.36 200.526C1104.43 202.25 1109.66 203.109 1114.04 203.109C1118.24 203.109 1121.48 202.526 1123.77 201.365C1126.06 200.198 1127.2 198.688 1127.2 196.818C1127.2 195.328 1126.65 194.162 1125.53 193.323C1124.4 192.484 1122.86 192.063 1120.9 192.063C1119.69 192.063 1118.31 192.109 1116.78 192.203C1115.23 192.297 1113.99 192.391 1113.07 192.484C1108.21 193.042 1103.21 193.323 1098.08 193.323C1089.78 193.323 1083.03 191.76 1077.85 188.635C1072.67 185.516 1070.08 180.412 1070.08 173.323C1070.08 165.12 1073.95 158.755 1081.7 154.234C1089.45 149.714 1100.83 147.453 1115.86 147.453C1123.23 147.453 1130.68 148.5 1138.19 150.599C1145.71 152.698 1152.36 155.839 1158.15 160.037L1142.04 176.26C1136.72 173.464 1131.75 171.484 1127.14 170.318C1122.52 169.151 1117.86 168.568 1113.2 168.568C1109.93 168.568 1107.14 169.224 1104.8 170.526C1102.47 171.833 1101.3 173.323 1101.3 175C1101.3 176.307 1101.79 177.333 1102.78 178.078C1103.75 178.828 1105.04 179.198 1106.63 179.198C1108.21 179.198 1110.4 179.057 1113.2 178.776C1120.02 178.313 1125.1 178.078 1128.46 178.078C1138.17 178.078 1145.68 179.714 1151.01 182.974C1156.33 186.24 1158.98 191.224 1158.98 197.938C1158.98 208.005 1155.07 215.302 1147.23 219.823C1139.39 224.344 1128.56 226.604 1114.74 226.604C1106.9 226.604 1098.94 225.505 1090.88 223.318Z" fill="#104953"/>
</g>
<path d="M7.01562 186.729H115.068V221.927H7.01562V186.729Z" fill="#89171A"/>
<path d="M61.0416 78.8751L9.22394 156.146H112.859L61.0416 78.8751Z" fill="#DE808A"/>
<path d="M138.964 186.839H247.016V222.036H138.964V186.839Z" fill="#0E2C38"/>
<path d="M137.901 102.609C137.901 132.177 161.896 156.146 191.495 156.146C221.089 156.146 245.083 132.177 245.083 102.609H137.901Z" fill="#00616E"/>
<path d="M191.49 84.7032L243.307 7.43756H139.672L191.49 84.7032Z" fill="#136A5C"/>
</g>
<defs>
<clipPath id="clip0_18_80">
<rect width="1164" height="233" fill="white"/>
</clipPath>
</defs>
</svg>
