<?xml version="1.0" encoding="UTF-8"?>
<svg id="Layer_2" data-name="Layer 2" xmlns="http://www.w3.org/2000/svg" viewBox="0 0 484.46 195.17">
  <defs>
    <style>
      .cls-1 {
        fill: #003ce5;
      }
    </style>
  </defs>
  <g id="Layer_1-2" data-name="Layer 1">
    <g>
      <g>
        <path class="cls-1" d="M59.77,14.56v15.76h-16.74v-13.55l-26.3-.18v52.78h26.3v-14.35s16.74.14,16.74.23v17.31h-13.55v12.75H15.14v-12.75H0V14.38h16.25l-.05-14.35h30.02v14.33l13.55.19h0Z"/>
        <path class="cls-1" d="M128.8,33.53l-12.75-.03.15,9.27h11.55v42.73h-15.46v-38.69h-25.29v.27h0v38.41c-8.07.01-14.66-.02-14.77-.16L71.42.05S117.01-.03,117.01.05l.06,13.61h11.73v19.87ZM113.66,30.65v-14.66h-26.67v14.66h26.67Z"/>
        <path class="cls-1" d="M197.89,15.98h-40.65v15.94h26.13l-.15,15.21-25.39-.06v21.52h39.66v16.74h-55.39V.04S197.89-.05,197.89.04v15.94Z"/>
        <path class="cls-1" d="M253.78.04v13.55s12.75-.03,12.75.06v71.85h-15.94v-26.47l-27.1.22v26.26h-15.48l-.49-71.17,13.57.06V.04h32.68ZM224.01,15.13v29.54h26.45V15.13h-26.45Z"/>
        <path class="cls-1" d="M295.68.04l.18,12.44h15.94v16.39l12.75.07V.28h15.14v85.21c0,.13-14.35,0-14.35,0l-.4-42.33-15.54-.12v-13.5h-13.55v55.95h-15.32V.04h15.14Z"/>
        <path class="cls-1" d="M398.41.04l-.07,13.54s14.11.18,14.11.26v57.91h-13.95s-.11,13.73-.11,13.73h-44.13l.07-85.45h44.07ZM395.72,68.58V17.97h-25.5v50.6h25.5Z"/>
        <path class="cls-1" d="M470.45,13.02l11.16.07v58.85h-10.92v13.55h-35.14l-.13-14.35h-11.19V12.79h12.55V.04h33.68v12.99h0ZM467.02,15.18l-27.67-.12v52.64l27.67.14V15.18Z"/>
      </g>
      <g>
        <path class="cls-1" d="M48.6,114.67c-11.73-.49-29.81.14-41.57-.29-2.18.04-5.84-.2-5.65,2.18.28,1.38,1.28,2.49,2.07,3.68,2.77,3.46,3.28,6.54,3.1,10.95-.11,13.5.22,38.57-.14,49.71-.2,3.3-3.44,6.48-4.78,9.03-.83,1.67-.03,2.67,2.26,2.96h.1c2.9.32,9.75-.03,12.87.12,7,.15,8.92-.63,4.19-6.59-3.01-3.81-2.55-8.36-2.59-13.96,0-3.13,0-6.49,0-9.59,0-2.44-.03-4.29.41-5.39,1.05-2.21,3.92-1.59,5.91-1.77,4.72.24,9.57-.94,12.92,2.73,1.1,1.24,2.3,3.34,3.36,4.41,3.54,3.34,2.25-13.05,2.47-14.91-.11-1.86.65-8.46-1.44-8.8-1.72.54-2.58,2.96-4.19,4.78-.83,1.01-1.83,1.8-3.04,2.23-2.68.91-5.71.69-8.58.74-2.35-.15-6,.47-7.29-1.24-.78-1.08-.46-5.17-.53-7.42.08-7.3-.17-11.08.11-16.87.34-3.06,3.76-2.16,6.13-2.37,3.2,0,6.7-.02,9.9.01,3.8-.03,7.24.44,10.03,2.76,2.13,1.6,3.71,3.99,5.39,6.07,1.12,1.3,3.54,4.24,4.12,1.42.33-2.59-.4-5.68-.91-8.28-.62-2.94-1.74-6.11-4.63-6.31Z"/>
        <path class="cls-1" d="M110.86,178.74c-.33-11.39-.04-30.06-.13-40.5-.23-3.02.94-6.12-.11-8.98-.77-1.84-2.87-2.79-4.87-3.14-2.71-.48-10.47-1.12-10.45,2.04.18,1.9,1.87,3.8,2.88,5.49,1.81,2.74,1.57,5.38,1.6,9.74,0,8.86,0,21.63,0,29.36.06,3.25-.56,6.39-2.76,8.95-5.89,7.67-18.06,10.35-19.74-1.73-.3-14.74-.43-34.4.15-48.81-.05-3.57-3.47-5.04-7.1-5.32-2.24-.13-8.13-.63-8.65,2.03-.21,1.44,1.76,4.04,2.93,5.85,1.22,1.83,1.5,3.87,1.52,6.01.05,8.7.01,21.31.02,31.88.05,4.76-.16,7.12.32,10.56l.02.11c1.33,10.36,11.39,14.48,21.65,10.36,3.41-1.19,6.36-4.38,9.26-6.01,3.16-1.35,1.73,6.11,6.3,7.03,3.02.63,7.65.19,9.42-2.36.97-1.83-.19-4.06-.79-5.97-.81-2.15-1.34-4.36-1.47-6.61Z"/>
        <path class="cls-1" d="M148.56,186.99c-2.47.56-5.88,1.93-8.66,1.82-3.74.05-6.63-3.14-7.05-6.31-.88-13.11-.1-31.84-.35-47.51-.21-4.8,1.43-6.46,6.31-5.67,2.05.26,9.41,1.9,9.47-.99-1.92-3.44-8.33-2.71-11.5-4.12-2.37-.87-3.74-2.97-4.11-5.27-.65-3.65-1.22-10.11-5.91-4.46-1.51,1.8-3.15,4.32-4.91,6.15-2.68,2.73-5.71,5.77-3.5,9.5.57,1.19,1.32,2.34,1.72,3.6.57,1.81.47,3.76.5,5.66,0,3.56,0,8.79,0,14.38,0,5.72,0,12.51,0,17.89.2,8.37-1.1,14.41,5.06,20.22l.11.09c6.8,5.82,19.36,3.16,24.29-4.01.59-1.04.05-1.35-1.49-.99Z"/>
        <path class="cls-1" d="M200.99,178.74c-.33-11.39-.04-30.06-.13-40.5-.23-3.02.94-6.12-.11-8.98-.77-1.84-2.87-2.79-4.87-3.14-2.71-.48-10.47-1.12-10.45,2.04.18,1.9,1.87,3.8,2.88,5.49,1.81,2.74,1.57,5.38,1.6,9.74,0,8.86,0,21.63,0,29.36.06,3.25-.56,6.39-2.76,8.95-5.89,7.67-18.06,10.35-19.74-1.73-.3-14.74-.43-34.4.15-48.81-.05-3.57-3.47-5.04-7.1-5.32-2.24-.13-8.13-.63-8.65,2.03-.21,1.44,1.76,4.04,2.93,5.85,1.22,1.83,1.5,3.87,1.52,6.01.28,11.61-.47,29.78.34,42.44l.02.11c1.33,10.36,11.39,14.48,21.65,10.36,2.5-1.01,4.79-2.69,6.8-4.34,1.3-.97,2-1.74,3.25-1.85.37.01.64.19.85.48.87,1.14,1.1,4.59,3.16,6.03,2.73,1.81,9.18,1.04,10.92-1.66.97-1.83-.19-4.06-.79-5.97-.81-2.15-1.34-4.36-1.47-6.61Z"/>
        <path class="cls-1" d="M250.64,126.86c-1.76-1.59-4.41-2.2-6.84-2.27-4.11-.13-8.43,1.12-11.87,3.07-1.93.98-3.91,2.7-5.99,2.92-1.38.08-2-1.38-3.1-2.75-.97-1.44-3.02-2.35-5.04-2.06-3.74.46-8.09,2.05-7.69,5.9.15,1.54.81,3.14,1.34,4.64,1.3,3.41,1.16,6.37,1.2,10.64,0,5.08,0,10.37,0,15.62,0,3.69,0,7.34,0,10.98-.05,5.01.29,8.09-1.39,10.97-.96,1.78-2.63,3.68-2.95,5.63v.08c-.45,2.45,4.53,2.75,6.78,2.79,4.22.08,9.37.15,11.55-.81,3.58-1.64-.7-5.72-1.66-7.96-1.56-2.87-1.17-5.93-1.24-10.98,0-3.79,0-7.59,0-11.43.12-6.51-.27-13.25.21-19.51.69-5.67,6.23-9.68,12.36-10.29,4.36-.45,9.12,1.67,13.23.38,2.77-.91,3.11-3.85,1.09-5.55Z"/>
        <path class="cls-1" d="M264.44,130.37c-18.76,13.78-17.57,47.72,2.52,59.9l.13.07c7.19,4.28,16.75,5.25,24.74,2.3,13.37-4.69,20.26-18.5,20.69-31.25.62-9.83-1.97-19.76-8.78-27.12-10.09-11.28-26.97-13.41-39.3-3.9ZM295.42,182.65c-6.82,9.33-20.66,8.65-27.15-.59l-.08-.11c-6.03-8.61-6.38-21.78-5.12-31.78.94-6.07,3.4-12.44,8.19-16.66,11.46-9.45,24.75-1.79,28.19,10.54,3.12,10.9,2.96,29.29-4.01,38.6Z"/>
        <path class="cls-1" d="M366.76,177.65c0-1.86,0-4.22,0-6.99,0-7.78,0-18.32,0-24.95-.06-4.11.26-7.81-.88-11.74-2.76-11.24-18.1-12.06-26.08-5.03-2.44,1.8-5.3,6.44-6.24,3.9-.73-2.29-.65-6.29-3.47-7.11-3.29-.71-9.25.94-10.46,3.91-.66,2.14.72,4.56,1.41,6.64,1.29,3.39,1.07,6.71,1.11,10.49,0,5.15,0,10.5,0,15.72,0,4.2,0,9.14,0,12.96-.03,3.87.16,6.39-1.21,8.85-1.02,1.9-2.81,3.73-3.3,5.81v.08c-.38,3.29,6.93,2.6,9.47,2.73,3.77-.15,11.44.67,10.37-3.18-.54-1.76-2.06-3.51-3-5.17-1.65-2.77-1.31-5.64-1.37-10.37,0-2.2,0-4.41,0-6.66,0-4.89,0-10.34,0-15.1,0-4.7-.25-8.87,2.02-13.03,1.51-2.87,4.24-6.36,7.78-7.91,4.38-2.16,9.68-.89,11.66,3.33,1.49,3.07,1.16,6.39,1.23,9.7-.03,9.19.06,25.46-.03,34.76-.06,1.94-.31,3.6-1.34,5.3-1.25,2.18-3.76,4.86-2.95,6.63,1.6,2.02,5.64,1.58,9.62,1.69,3.39.02,6.97.01,8.74-.74,3.69-1.61-.95-5.6-2.12-8.33-.97-1.97-.93-4.02-.96-6.19Z"/>
        <path class="cls-1" d="M423.71,172.35c-.13-8.64.28-17.52-.28-26.1-.61-6.46-2.63-13.53-8.29-17.6-7.69-5.39-19.2-5.55-27.81-2.15-3.88,1.66-7.3,4.17-8.76,7.82-1.41,3.11.49,7.38,4.27,6.51,5.21-1.33,7.45-7.89,12.09-10.36,3.92-2.38,9.07-2.18,12.4.4,3.45,2.76,4.56,7.04,5.21,11.16.93,5.55.09,10.99-6.5,12.42-10.68,1.65-23.14,4.81-29.47,13.43-5.08,6.47-5.3,16.68,1.49,22.15l.11.09c7.67,5.99,20.84,5.26,29.19-.06,6.05-3.48,4.66.85,9.58,3.16,2.78.96,6.91.32,8.59-2.04,1.16-1.81.15-4.55-.45-6.59-1.33-3.94-1.33-7.36-1.36-12.22ZM409.86,182.63c-3.11,3.69-7.96,6.12-13.09,6.09h-.15c-10.78.07-13.95-9.64-10.45-17.8,3.4-7.89,12.97-12.51,21.76-13.14,6.21-.1,4.46,6.9,4.78,11.41,0,4.72.22,10.03-2.85,13.45Z"/>
        <path class="cls-1" d="M479.97,177.65c0-1.86,0-4.22,0-6.99,0-7.78,0-18.32,0-24.95-.06-4.11.26-7.81-.88-11.74-2.76-11.24-18.1-12.06-26.08-5.03-3.46,2.71-6.01,7.79-6.69,1.92-.44-2.41-1.09-5.06-3.83-5.29-4.03-.11-10.9,1.68-9.69,6.39.29,1.42.96,2.91,1.46,4.31,1.15,3.07,1.07,5.66,1.1,9.13,0,5.62,0,11.39,0,17.08,0,4.2,0,9.14,0,12.96-.03,3.87.16,6.39-1.21,8.85-1.02,1.9-2.81,3.73-3.3,5.81v.08c-.38,3.29,6.93,2.6,9.47,2.73,3.77-.15,11.44.67,10.37-3.18-.54-1.76-2.06-3.51-3-5.17-1.65-2.77-1.31-5.64-1.37-10.37,0-2.2,0-4.41,0-6.66,0-4.89,0-10.34,0-15.1,0-4.7-.25-8.87,2.02-13.03,1.51-2.87,4.24-6.36,7.78-7.91,4.38-2.16,9.68-.89,11.66,3.33,1.49,3.07,1.16,6.39,1.23,9.7-.03,9.19.06,25.46-.03,34.76-.06,1.94-.31,3.6-1.34,5.3-1.25,2.18-3.76,4.86-2.95,6.63,1.6,2.02,5.64,1.58,9.62,1.69,3.39.02,6.97.01,8.74-.74,3.69-1.61-.95-5.6-2.12-8.33-.97-1.97-.93-4.02-.96-6.19Z"/>
      </g>
    </g>
  </g>
</svg>