<?xml version="1.0" encoding="UTF-8"?>
<svg id="Layer_2" data-name="Layer 2" xmlns="http://www.w3.org/2000/svg" viewBox="0 0 1172.9 102.43">
  <defs>
    <style>
      .cls-1 {
        fill: #003ce5;
      }
    </style>
  </defs>
  <g id="Layer_1-2" data-name="Layer 1">
    <g>
      <g>
        <path class="cls-1" d="M67.3,22.5v17.75h-18.84v-15.25l-29.61-.2v59.43h29.61v-16.15s18.84.16,18.84.25v19.49h-15.25v14.36H17.05v-14.36H0V22.31h18.3l-.06-16.15h33.8v16.14l15.26.21h0Z"/>
        <path class="cls-1" d="M145.01,43.86l-14.35-.03.17,10.43h13v48.1h-17.41v-43.56h-28.47v.31h0v43.25c-9.09.01-16.51-.02-16.63-.18l-.9-96.01s51.34-.1,51.34,0l.06,15.32h13.2v22.37ZM127.96,40.62v-16.5h-30.02v16.5h30.02Z"/>
        <path class="cls-1" d="M222.8,24.1h-45.76v17.95h29.42l-.17,17.12-28.58-.07v24.23h44.65v18.84h-62.36V6.16s62.81-.1,62.81,0v17.95Z"/>
        <path class="cls-1" d="M285.73,6.16v15.25s14.36-.03,14.36.06v80.89h-17.95v-29.81l-30.51.24v29.56h-17.42l-.55-80.13,15.28.07V6.16h36.79ZM252.21,23.15v33.26h29.78V23.15h-29.78Z"/>
        <path class="cls-1" d="M332.9,6.16l.2,14h17.95v18.45l14.36.08V6.43h17.05v95.94c0,.15-16.15,0-16.15,0l-.45-47.66-17.49-.13v-15.2h-15.25v62.99h-17.25V6.16h17.05Z"/>
        <path class="cls-1" d="M448.56,6.16l-.07,15.25s15.89.2,15.89.29v65.2h-15.71s-.12,15.46-.12,15.46h-49.68l.07-96.21h49.62ZM445.53,83.33V26.35h-28.71v56.97h28.71Z"/>
        <path class="cls-1" d="M529.67,20.78l12.56.07v66.26h-12.29v15.25h-39.56l-.15-16.15h-12.6V20.51h14.13V6.16h37.92v14.62h0ZM525.81,23.2l-31.16-.14v59.26l31.16.15V23.2Z"/>
      </g>
      <g>
        <path class="cls-1" d="M634.39,2.98c-14.49-.6-36.83.17-51.36-.36-2.69.04-7.22-.24-6.98,2.69.34,1.7,1.58,3.07,2.56,4.54,3.43,4.27,4.06,8.08,3.83,13.53-.13,16.68.28,47.65-.18,61.42-.25,4.08-4.25,8-5.9,11.16-1.02,2.06-.04,3.3,2.79,3.66l.12.02c3.59.37,12.05-.06,15.9.13,8.65.19,11.02-.78,5.17-8.14-3.72-4.7-3.16-10.33-3.2-17.24,0-3.87,0-8.01,0-11.85.01-3.01-.04-5.3.51-6.66,1.3-2.73,4.85-1.97,7.3-2.19,5.84.29,11.82-1.17,15.96,3.37,1.36,1.53,2.84,4.12,4.15,5.45,4.37,4.13,2.78-16.13,3.05-18.42-.14-2.3.8-10.45-1.78-10.88-2.13.67-3.19,3.66-5.18,5.9-1.02,1.25-2.27,2.22-3.75,2.75-3.31,1.12-7.06.86-10.6.92-2.9-.19-7.41.58-9.01-1.53-.97-1.33-.57-6.39-.65-9.16.1-9.02-.21-13.69.14-20.84.41-3.78,4.64-2.67,7.57-2.93,3.95,0,8.28-.02,12.24.01,4.7-.03,8.94.54,12.39,3.4,2.64,1.98,4.58,4.92,6.66,7.5,1.38,1.6,4.37,5.24,5.09,1.76.41-3.19-.49-7.02-1.12-10.23-.77-3.63-2.15-7.55-5.72-7.79Z"/>
        <path class="cls-1" d="M711.32,82.13c-.41-14.08-.05-37.14-.16-50.04-.29-3.74,1.16-7.56-.14-11.09-.95-2.28-3.54-3.45-6.02-3.88-3.34-.6-12.94-1.39-12.91,2.53.22,2.34,2.31,4.7,3.55,6.78,2.24,3.39,1.94,6.65,1.97,12.04,0,10.95,0,26.72,0,36.27.07,4.02-.69,7.9-3.41,11.06-7.28,9.48-22.32,12.78-24.38-2.13-.37-18.21-.53-42.5.19-60.3-.06-4.41-4.29-6.23-8.77-6.57-2.77-.16-10.04-.78-10.68,2.5-.26,1.78,2.17,4.99,3.62,7.23,1.5,2.26,1.85,4.78,1.88,7.43.06,10.75.01,26.32.02,39.39.06,5.88-.19,8.79.4,13.04l.02.14c1.64,12.8,14.07,17.89,26.75,12.79,4.22-1.47,7.86-5.41,11.44-7.43,3.9-1.67,2.14,7.55,7.79,8.69,3.74.78,9.45.23,11.63-2.91,1.2-2.26-.24-5.02-.97-7.37-1-2.66-1.65-5.38-1.81-8.17Z"/>
        <path class="cls-1" d="M757.89,92.33c-3.05.7-7.26,2.38-10.7,2.25-4.62.06-8.19-3.88-8.71-7.79-1.08-16.19-.12-39.34-.43-58.7-.26-5.93,1.76-7.99,7.8-7,2.53.32,11.63,2.34,11.7-1.22-2.38-4.25-10.3-3.35-14.2-5.09-2.93-1.07-4.61-3.67-5.07-6.52-.8-4.51-1.51-12.49-7.3-5.5-1.87,2.22-3.9,5.34-6.06,7.59-3.31,3.38-7.06,7.13-4.32,11.74.71,1.47,1.63,2.89,2.12,4.45.7,2.24.59,4.64.62,7,0,4.4,0,10.87,0,17.77,0,7.07,0,15.46,0,22.1.24,10.34-1.36,17.8,6.25,24.98l.14.12c8.4,7.19,23.92,3.9,30-4.95.73-1.28.06-1.67-1.84-1.23Z"/>
        <path class="cls-1" d="M822.67,82.13c-.41-14.08-.05-37.14-.16-50.04-.29-3.74,1.16-7.56-.14-11.09-.95-2.28-3.54-3.45-6.02-3.88-3.34-.6-12.94-1.39-12.91,2.53.22,2.34,2.31,4.7,3.55,6.78,2.24,3.39,1.94,6.65,1.97,12.04,0,10.95,0,26.72,0,36.27.07,4.02-.69,7.9-3.41,11.06-7.28,9.48-22.32,12.78-24.38-2.13-.37-18.21-.53-42.5.19-60.3-.06-4.41-4.29-6.23-8.77-6.57-2.77-.16-10.04-.78-10.68,2.5-.26,1.78,2.17,4.99,3.62,7.23,1.5,2.26,1.85,4.78,1.88,7.43.34,14.34-.58,36.79.42,52.43l.02.14c1.64,12.8,14.07,17.89,26.75,12.79,3.09-1.25,5.92-3.32,8.4-5.36,1.61-1.2,2.47-2.15,4.01-2.28.45.02.79.24,1.05.59,1.08,1.4,1.36,5.67,3.91,7.45,3.37,2.24,11.34,1.28,13.49-2.05,1.2-2.26-.24-5.02-.97-7.37-1-2.66-1.65-5.38-1.81-8.17Z"/>
        <path class="cls-1" d="M884.01,18.04c-2.17-1.96-5.45-2.72-8.45-2.81-5.08-.15-10.42,1.38-14.67,3.8-2.38,1.21-4.84,3.33-7.4,3.61-1.71.1-2.47-1.7-3.83-3.4-1.2-1.78-3.74-2.9-6.22-2.55-4.61.57-9.99,2.53-9.5,7.29.18,1.9,1.01,3.88,1.65,5.73,1.61,4.22,1.43,7.87,1.48,13.14,0,6.27,0,12.81,0,19.3,0,4.56,0,9.07,0,13.57-.07,6.2.36,10-1.72,13.55-1.19,2.2-3.25,4.55-3.64,6.96v.09c-.55,3.03,5.6,3.4,8.38,3.45,5.22.1,11.57.19,14.27-1,4.42-2.03-.86-7.06-2.05-9.83-1.92-3.55-1.44-7.33-1.53-13.57,0-4.68,0-9.38,0-14.12.15-8.05-.33-16.37.26-24.11.86-7.01,7.7-11.96,15.27-12.71,5.39-.56,11.27,2.07,16.35.47,3.43-1.13,3.85-4.75,1.35-6.86Z"/>
        <path class="cls-1" d="M901.06,22.38c-23.18,17.03-21.71,58.96,3.12,74l.16.09c8.88,5.29,20.69,6.49,30.57,2.84,16.51-5.79,25.03-22.85,25.56-38.61.77-12.15-2.44-24.41-10.84-33.51-12.47-13.93-33.33-16.56-48.56-4.82ZM939.34,86.96c-8.43,11.53-25.52,10.69-33.55-.72l-.1-.13c-7.45-10.63-7.89-26.91-6.33-39.27,1.17-7.5,4.21-15.37,10.11-20.58,14.15-11.68,30.57-2.21,34.82,13.02,3.86,13.47,3.66,36.19-4.96,47.69Z"/>
        <path class="cls-1" d="M1027.47,80.79c0-2.3,0-5.21,0-8.64,0-9.62,0-22.63,0-30.83-.07-5.08.32-9.65-1.09-14.5-3.41-13.89-22.36-14.9-32.22-6.22-3.02,2.22-6.55,7.96-7.71,4.82-.9-2.83-.8-7.77-4.29-8.79-4.07-.88-11.43,1.16-12.92,4.83-.82,2.64.89,5.63,1.75,8.2,1.59,4.18,1.32,8.29,1.37,12.96,0,6.36,0,12.97,0,19.42,0,5.19,0,11.29,0,16.02-.04,4.78.2,7.9-1.49,10.93-1.26,2.35-3.48,4.61-4.08,7.18l-.02.1c-.46,4.07,8.57,3.21,11.71,3.38,4.65-.18,14.13.83,12.81-3.93-.66-2.17-2.55-4.34-3.71-6.39-2.04-3.42-1.62-6.96-1.69-12.81,0-2.72,0-5.44,0-8.23,0-6.04,0-12.77,0-18.65,0-5.8-.31-10.96,2.5-16.09,1.87-3.54,5.24-7.85,9.62-9.77,5.41-2.67,11.95-1.1,14.41,4.11,1.84,3.79,1.43,7.9,1.52,11.98-.04,11.35.08,31.45-.04,42.95-.07,2.4-.38,4.45-1.65,6.55-1.55,2.69-4.65,6-3.64,8.19,1.98,2.5,6.96,1.95,11.89,2.09,4.19.03,8.61.02,10.8-.91,4.56-1.98-1.17-6.92-2.62-10.29-1.2-2.43-1.15-4.96-1.19-7.65Z"/>
        <path class="cls-1" d="M1097.84,74.24c-.16-10.68.35-21.65-.35-32.24-.75-7.98-3.25-16.71-10.24-21.74-9.5-6.66-23.72-6.85-34.36-2.66-4.79,2.05-9.02,5.15-10.82,9.67-1.74,3.85.61,9.12,5.27,8.04,6.44-1.65,9.21-9.75,14.93-12.8,4.85-2.94,11.21-2.7,15.32.49,4.27,3.4,5.64,8.7,6.44,13.78,1.15,6.86.11,13.58-8.03,15.34-13.2,2.04-28.59,5.95-36.41,16.59-6.27,7.99-6.55,20.6,1.84,27.36l.14.11c9.47,7.4,25.75,6.5,36.06-.08,7.47-4.29,5.75,1.05,11.83,3.91,3.43,1.19,8.53.4,10.61-2.52,1.43-2.23.18-5.63-.55-8.15-1.64-4.86-1.65-9.09-1.68-15.1ZM1080.73,86.94c-3.85,4.56-9.83,7.56-16.17,7.52h-.19c-13.32.08-17.23-11.91-12.91-22,4.2-9.75,16.02-15.46,26.89-16.24,7.67-.12,5.51,8.53,5.9,14.09,0,5.83.28,12.4-3.52,16.62Z"/>
        <path class="cls-1" d="M1167.35,80.79c0-2.3,0-5.21,0-8.64,0-9.62,0-22.63,0-30.83-.07-5.08.32-9.65-1.09-14.5-3.41-13.89-22.36-14.9-32.22-6.22-4.27,3.35-7.43,9.63-8.27,2.37-.54-2.98-1.34-6.26-4.74-6.54-4.98-.14-13.47,2.08-11.97,7.9.36,1.75,1.19,3.6,1.81,5.33,1.42,3.79,1.32,6.99,1.36,11.28,0,6.94,0,14.07,0,21.1,0,5.19,0,11.29,0,16.02-.04,4.78.2,7.9-1.49,10.93-1.26,2.35-3.48,4.61-4.08,7.18l-.02.1c-.46,4.07,8.57,3.21,11.71,3.38,4.65-.18,14.13.83,12.81-3.93-.66-2.17-2.55-4.34-3.71-6.39-2.04-3.42-1.62-6.96-1.69-12.81,0-2.72,0-5.44,0-8.23,0-6.04,0-12.77,0-18.65,0-5.8-.31-10.96,2.5-16.09,1.87-3.54,5.24-7.85,9.62-9.77,5.41-2.67,11.95-1.1,14.41,4.11,1.84,3.79,1.43,7.9,1.52,11.98-.04,11.35.08,31.45-.04,42.95-.07,2.4-.38,4.45-1.65,6.55-1.55,2.69-4.65,6-3.64,8.19,1.98,2.5,6.96,1.95,11.89,2.09,4.19.03,8.61.02,10.8-.91,4.56-1.98-1.17-6.92-2.62-10.29-1.2-2.43-1.15-4.96-1.19-7.65Z"/>
      </g>
    </g>
  </g>
</svg>