<?xml version="1.0" encoding="UTF-8"?>
<svg id="Layer_2" data-name="Layer 2" xmlns="http://www.w3.org/2000/svg" viewBox="0 0 418.63 446.29">
  <defs>
    <style>
      .cls-1 {
        fill: #cef913;
      }

      .cls-2 {
        fill: #003ce5;
      }
    </style>
  </defs>
  <g id="Layer_1-2" data-name="Layer 1">
    <g>
      <polygon class="cls-1" points="58.91 189.44 41.76 70.88 77.08 154.02 105.54 83.21 117.99 139.87 227.7 0 192.12 131.15 290.56 113.89 253.19 149.41 388.32 99.46 314.28 172.4 398.63 196.88 333.32 212.1 418.63 249.34 329.64 246.25 396.17 301.75 336.99 290.93 351.69 363.15 290.56 303.23 289.38 446.29 240.09 318.48 207.54 383.34 207.54 315.53 141.12 421.67 158.66 310.87 97.24 380.19 117.99 307.82 41.76 337.02 68.84 295.53 17.27 286.17 55.24 240.12 0 172.4 58.91 189.44"/>
      <g>
        <path class="cls-2" d="M221.49,72.33v39.09h-41.5v-33.6l-65.22-.45v130.89h65.22v-35.57s41.5.35,41.5.56v42.92h-33.6v31.62h-77.08v-31.62h-37.55V71.9h40.3l-.13-35.57h74.45v35.55l33.6.46h0Z"/>
        <path class="cls-2" d="M325.9,236.39c-28.91-1.2-73.49.34-102.48-.71-5.38.09-14.41-.48-13.93,5.37.68,3.4,3.15,6.13,5.1,9.07,6.84,8.53,8.1,16.13,7.64,27-.27,33.28.55,95.08-.35,122.54-.5,8.13-8.48,15.97-11.78,22.27-2.04,4.12-.08,6.59,5.57,7.31l.24.03c7.16.75,24.04-.11,31.73.25,17.26.38,21.98-1.55,10.32-16.23-7.43-9.38-6.3-20.62-6.38-34.4,0-7.72,0-15.99,0-23.64.02-6.01-.08-10.57,1.01-13.28,2.58-5.44,9.67-3.92,14.57-4.37,11.65.59,23.59-2.33,31.84,6.73,2.7,3.05,5.67,8.23,8.28,10.87,8.73,8.24,5.55-32.17,6.08-36.76-.28-4.59,1.59-20.84-3.54-21.7-4.25,1.34-6.36,7.3-10.33,11.77-2.04,2.5-4.52,4.44-7.49,5.49-6.61,2.24-14.08,1.71-21.14,1.83-5.8-.38-14.78,1.15-17.97-3.06-1.93-2.66-1.13-12.75-1.3-18.28.21-17.99-.43-27.31.28-41.58.83-7.55,9.26-5.33,15.11-5.84,7.88,0,16.52-.04,24.41.02,9.38-.07,17.85,1.08,24.71,6.79,5.26,3.96,9.14,9.82,13.29,14.97,2.76,3.19,8.73,10.46,10.16,3.5.82-6.37-.98-14-2.23-20.4-1.53-7.25-4.29-15.06-11.42-15.55Z"/>
      </g>
    </g>
  </g>
</svg>