<?xml version="1.0" encoding="UTF-8" standalone="no"?>
<svg
   xmlns:dc="http://purl.org/dc/elements/1.1/"
   xmlns:cc="http://creativecommons.org/ns#"
   xmlns:rdf="http://www.w3.org/1999/02/22-rdf-syntax-ns#"
   xmlns:svg="http://www.w3.org/2000/svg"
   xmlns="http://www.w3.org/2000/svg"
   viewBox="0 0 1431.0133 85.565063"
   height="85.565063"
   width="1431.0133"
   xml:space="preserve"
   id="svg2"
   version="1.1"><metadata
     id="metadata8"><rdf:RDF><cc:Work
         rdf:about=""><dc:format>image/svg+xml</dc:format><dc:type
           rdf:resource="http://purl.org/dc/dcmitype/StillImage" /></cc:Work></rdf:RDF></metadata><defs
     id="defs6"><clipPath
       id="clipPath18"
       clipPathUnits="userSpaceOnUse"><path
         id="path16"
         d="M 0,64.174 H 1073.259 V 0 H 0 Z" /></clipPath></defs><g
     transform="matrix(1.3333333,0,0,-1.3333333,0,85.565067)"
     id="g10"><g
       id="g12"><g
         clip-path="url(#clipPath18)"
         id="g14"><g
           transform="translate(-9e-4,22.8056)"
           id="g20"><path
             id="path22"
             style="fill:#1d1d1b;fill-opacity:1;fill-rule:nonzero;stroke:none"
             d="m 0,0 c 0,12.552 10.254,22.806 22.983,22.806 8.132,0 15.292,-4.155 19.358,-10.431 L 31.734,4.861 c -1.768,3.271 -4.862,5.481 -8.751,5.481 -5.48,0 -9.546,-4.243 -9.546,-10.342 0,-6.1 4.066,-10.342 9.546,-10.342 3.889,0 6.983,2.209 8.751,5.481 l 10.607,-7.514 C 38.275,-18.651 31.115,-22.806 22.983,-22.806 10.254,-22.806 0,-12.552 0,0" /></g><g
           transform="translate(69.2989,32.5292)"
           id="g24"><path
             id="path26"
             style="fill:#1d1d1b;fill-opacity:1;fill-rule:nonzero;stroke:none"
             d="m 0,0 c -2.74,0 -5.922,-1.062 -8.044,-2.917 v -28.905 h -13.348 v 44.197 h 13.348 v -3.89 c 2.476,3.094 5.746,4.597 10.077,4.597 1.414,0 3.094,-0.177 4.774,-0.707 V -1.503 C 4.773,-0.442 2.299,0 0,0" /></g><g
           transform="translate(110.1377,28.1972)"
           id="g28"><path
             id="path30"
             style="fill:#1d1d1b;fill-opacity:1;fill-rule:nonzero;stroke:none"
             d="m 0,0 -0.089,0.53 c -0.884,4.332 -4.684,6.189 -8.839,6.189 -3.182,0 -7.779,-1.415 -9.016,-6.719 z m -30.938,-5.392 c 0,12.994 9.193,22.806 22.806,22.806 11.226,0 21.303,-7.337 21.303,-21.303 0,-1.238 -0.089,-2.563 -0.266,-3.889 h -31.026 c 0.707,-5.923 5.657,-8.221 9.635,-8.221 4.685,0 7.69,2.298 9.459,5.569 l 10.606,-7.16 C 7.514,-23.954 0.354,-28.197 -8.397,-28.197 c -11.668,0 -22.541,9.193 -22.541,22.805" /></g><g
           transform="translate(158.9307,15.9111)"
           id="g32"><path
             id="path34"
             style="fill:#1d1d1b;fill-opacity:1;fill-rule:nonzero;stroke:none"
             d="m 0,0 v 13.789 c -1.768,2.387 -4.243,3.713 -7.514,3.713 -6.364,0 -10.165,-4.773 -10.165,-10.607 0,-5.834 3.801,-10.608 10.165,-10.608 3.271,0 5.746,1.326 7.514,3.713 m -9.724,-15.911 c -13.082,0 -21.39,10.695 -21.39,22.806 0,12.11 8.308,22.805 21.39,22.805 3.624,0 7.161,-1.237 9.724,-3.359 v 2.652 H 13.348 V -15.204 H 0 v 2.651 c -2.563,-2.121 -6.1,-3.358 -9.724,-3.358" /></g><g
           transform="translate(184.2989,14.3193)"
           id="g36"><path
             id="path38"
             style="fill:#1d1d1b;fill-opacity:1;fill-rule:nonzero;stroke:none"
             d="M 0,0 V 18.917 H -5.745 L -8.662,30.585 H 0 v 6.629 l 13.348,6.63 V 30.585 H 27.314 L 24.397,18.917 H 13.348 V 3.802 c 0,-3.713 1.503,-5.216 5.127,-5.216 h 7.248 V -13.612 H 13.524 C 5.216,-13.612 0,-8.398 0,0" /></g><path
           id="path40"
           style="fill:#1d1d1b;fill-opacity:1;fill-rule:nonzero;stroke:none"
           d="M 217.533,44.904 H 230.97 V 0.707 h -13.437 z m 6.719,19.27 c 4.419,0 7.955,-3.535 7.955,-7.955 0,-1.946 -0.619,-3.713 -1.768,-5.039 h -12.375 c -1.149,1.326 -1.768,3.093 -1.768,5.039 0,4.42 3.536,7.955 7.956,7.955" /><g
           transform="translate(270.128,44.9042)"
           id="g42"><path
             id="path44"
             style="fill:#1d1d1b;fill-opacity:1;fill-rule:nonzero;stroke:none"
             d="M 0,0 H 15.38 L -10.343,-44.904 -36.065,0 h 15.38 l 10.342,-19.271 z" /></g><g
           transform="translate(314.2354,28.1972)"
           id="g46"><path
             id="path48"
             style="fill:#1d1d1b;fill-opacity:1;fill-rule:nonzero;stroke:none"
             d="m 0,0 -0.089,0.53 c -0.884,4.332 -4.684,6.189 -8.839,6.189 -3.182,0 -7.779,-1.415 -9.016,-6.719 z m -30.939,-5.392 c 0,12.994 9.194,22.806 22.807,22.806 11.226,0 21.303,-7.337 21.303,-21.303 0,-1.238 -0.089,-2.563 -0.266,-3.889 h -31.026 c 0.707,-5.923 5.657,-8.221 9.635,-8.221 4.685,0 7.69,2.298 9.459,5.569 l 10.606,-7.16 C 7.514,-23.954 0.353,-28.197 -8.398,-28.197 c -11.667,0 -22.541,9.193 -22.541,22.805" /></g><path
           id="path50"
           style="fill:#1d1d1b;fill-opacity:1;fill-rule:nonzero;stroke:none"
           d="m 353.038,44.904 h 13.437 V 0.707 h -13.437 z m 6.719,19.27 c 4.419,0 7.955,-3.535 7.955,-7.955 0,-1.946 -0.619,-3.713 -1.768,-5.039 h -12.375 c -1.149,1.326 -1.768,3.093 -1.768,5.039 0,4.42 3.536,7.955 7.956,7.955" /><g
           transform="translate(397.4112,33.413)"
           id="g52"><path
             id="path54"
             style="fill:#1d1d1b;fill-opacity:1;fill-rule:nonzero;stroke:none"
             d="M 0,0 C -2.564,0 -5.746,-1.326 -7.956,-3.801 V -32.706 H -21.304 V 11.491 H -7.956 V 8.839 c 2.652,2.122 6.276,3.359 10.166,3.359 12.463,0 19.269,-8.309 19.269,-20.242 V -32.706 H 8.132 v 22.275 C 8.132,-4.509 5.834,0 0,0" /></g><g
           transform="translate(456.8106,15.9111)"
           id="g56"><path
             id="path58"
             style="fill:#1d1d1b;fill-opacity:1;fill-rule:nonzero;stroke:none"
             d="m 0,0 v 13.789 c -1.768,2.387 -4.243,3.713 -7.514,3.713 -6.364,0 -10.165,-4.773 -10.165,-10.607 0,-5.834 3.801,-10.608 10.165,-10.608 3.271,0 5.746,1.326 7.514,3.713 m -9.724,-15.911 c -13.082,0 -21.391,10.695 -21.391,22.806 0,12.11 8.309,22.805 21.391,22.805 3.624,0 7.16,-1.237 9.724,-3.359 v 21.215 h 13.348 v -62.76 H 0 v 2.651 c -2.564,-2.121 -6.1,-3.358 -9.724,-3.358" /></g><g
           transform="translate(508.7862,3.9775)"
           id="g60"><path
             id="path62"
             style="fill:#1d1d1b;fill-opacity:1;fill-rule:nonzero;stroke:none"
             d="m 0,0 c -2.652,-2.475 -6.807,-3.978 -10.52,-3.978 -11.932,0 -18.916,8.221 -18.916,20.243 v 24.662 h 13.348 V 18.651 c 0,-6.01 2.475,-10.43 7.778,-10.43 3.271,0 6.541,1.591 8.31,4.508 V 40.927 H 13.347 V -3.27 L 0,-3.27 Z" /></g><g
           transform="translate(544.8497,-1e-4)"
           id="g64"><path
             id="path66"
             style="fill:#1d1d1b;fill-opacity:1;fill-rule:nonzero;stroke:none"
             d="m 0,0 c -7.69,0 -13.967,2.74 -17.768,9.37 l 10.165,6.895 c 1.769,-3.183 4.156,-5.393 8.133,-5.393 1.857,0 3.448,0.443 3.448,2.033 0,1.68 -1.238,2.21 -5.57,3.89 l -2.298,0.884 c -7.69,3.006 -11.668,7.955 -11.668,14.231 0,8.132 6.718,13.701 15.204,13.701 5.658,0 10.608,-2.121 13.966,-6.983 L 6.011,31.114 c -1.68,2.387 -3.624,3.979 -6.365,3.979 -1.768,0 -3.182,-0.619 -3.182,-2.033 0,-1.769 1.414,-2.299 5.834,-3.978 L 4.154,28.374 C 12.552,25.192 15.999,20.596 15.999,14.055 15.999,5.038 9.016,0 0,0" /></g><g
           transform="translate(570.0401,14.3193)"
           id="g68"><path
             id="path70"
             style="fill:#1d1d1b;fill-opacity:1;fill-rule:nonzero;stroke:none"
             d="M 0,0 V 18.917 H -5.745 L -8.662,30.585 H 0 v 6.629 l 13.348,6.63 V 30.585 H 27.314 L 24.397,18.917 H 13.348 V 3.802 c 0,-3.713 1.503,-5.216 5.127,-5.216 h 7.248 V -13.612 H 13.524 C 5.216,-13.612 0,-8.398 0,0" /></g><g
           transform="translate(624.667,32.5292)"
           id="g72"><path
             id="path74"
             style="fill:#1d1d1b;fill-opacity:1;fill-rule:nonzero;stroke:none"
             d="m 0,0 c -2.74,0 -5.922,-1.062 -8.044,-2.917 v -28.905 h -13.348 v 44.197 h 13.348 v -3.89 c 2.476,3.094 5.746,4.597 10.077,4.597 1.414,0 3.094,-0.177 4.774,-0.707 V -1.503 C 4.773,-0.442 2.299,0 0,0" /></g><path
           id="path76"
           style="fill:#1d1d1b;fill-opacity:1;fill-rule:nonzero;stroke:none"
           d="m 637.13,44.904 h 13.437 V 0.707 H 637.13 Z m 6.719,19.27 c 4.419,0 7.955,-3.535 7.955,-7.955 0,-1.946 -0.619,-3.713 -1.768,-5.039 h -12.375 c -1.149,1.326 -1.768,3.093 -1.768,5.039 0,4.42 3.536,7.955 7.956,7.955" /><g
           transform="translate(688.5752,28.1972)"
           id="g78"><path
             id="path80"
             style="fill:#1d1d1b;fill-opacity:1;fill-rule:nonzero;stroke:none"
             d="m 0,0 -0.089,0.53 c -0.884,4.332 -4.684,6.189 -8.839,6.189 -3.182,0 -7.779,-1.415 -9.016,-6.719 z m -30.938,-5.392 c 0,12.994 9.193,22.806 22.806,22.806 11.226,0 21.303,-7.337 21.303,-21.303 0,-1.238 -0.089,-2.563 -0.266,-3.889 h -31.026 c 0.707,-5.923 5.657,-8.221 9.635,-8.221 4.685,0 7.69,2.298 9.459,5.569 l 10.606,-7.16 C 7.514,-23.954 0.354,-28.197 -8.397,-28.197 c -11.668,0 -22.541,9.193 -22.541,22.805" /></g><g
           transform="translate(722.5186,-1e-4)"
           id="g82"><path
             id="path84"
             style="fill:#1d1d1b;fill-opacity:1;fill-rule:nonzero;stroke:none"
             d="m 0,0 c -7.69,0 -13.967,2.74 -17.768,9.37 l 10.165,6.895 c 1.769,-3.183 4.156,-5.393 8.133,-5.393 1.857,0 3.447,0.443 3.447,2.033 0,1.68 -1.237,2.21 -5.569,3.89 l -2.298,0.884 c -7.69,3.006 -11.668,7.955 -11.668,14.231 0,8.132 6.718,13.701 15.204,13.701 5.658,0 10.608,-2.121 13.966,-6.983 L 6.011,31.114 c -1.68,2.387 -3.624,3.979 -6.365,3.979 -1.768,0 -3.182,-0.619 -3.182,-2.033 0,-1.769 1.414,-2.299 5.834,-3.978 L 4.154,28.374 C 12.552,25.192 15.999,20.596 15.999,14.055 15.999,5.038 9.016,0 0,0" /></g><g
           transform="translate(765.8291,33.2363)"
           id="g86"><path
             id="path88"
             style="fill:#1d1d1b;fill-opacity:1;fill-rule:nonzero;stroke:none"
             d="m 0,0 h -5.746 v 11.668 h 6.453 c -1.68,1.944 -2.74,4.508 -2.74,7.337 0,6.275 4.596,11.225 11.933,11.225 H 23.601 V 18.562 h -8.663 c -3.093,0 -4.331,-1.502 -4.331,-3.447 0,-1.944 1.502,-3.447 3.448,-3.447 h 9.546 V 0 H 13.348 V -32.529 H 0 Z" /></g><g
           transform="translate(823.9932,3.9775)"
           id="g90"><path
             id="path92"
             style="fill:#1d1d1b;fill-opacity:1;fill-rule:nonzero;stroke:none"
             d="m 0,0 c -2.652,-2.475 -6.807,-3.978 -10.52,-3.978 -11.932,0 -18.916,8.221 -18.916,20.243 v 24.662 h 13.348 V 18.651 c 0,-6.01 2.475,-10.43 7.778,-10.43 3.271,0 6.541,1.591 8.31,4.508 V 40.927 H 13.347 V -3.27 L 0,-3.27 Z" /></g><g
           transform="translate(868.2764,33.413)"
           id="g94"><path
             id="path96"
             style="fill:#1d1d1b;fill-opacity:1;fill-rule:nonzero;stroke:none"
             d="M 0,0 C -2.564,0 -5.746,-1.326 -7.956,-3.801 V -32.706 H -21.304 V 11.491 H -7.956 V 8.839 c 2.652,2.122 6.276,3.359 10.166,3.359 12.463,0 19.269,-8.309 19.269,-20.242 V -32.706 H 8.132 v 22.275 C 8.132,-4.509 5.834,0 0,0" /></g><g
           transform="translate(927.6758,15.9111)"
           id="g98"><path
             id="path100"
             style="fill:#1d1d1b;fill-opacity:1;fill-rule:nonzero;stroke:none"
             d="m 0,0 v 13.789 c -1.767,2.387 -4.243,3.713 -7.514,3.713 -6.364,0 -10.165,-4.773 -10.165,-10.607 0,-5.834 3.801,-10.608 10.165,-10.608 3.271,0 5.747,1.326 7.514,3.713 m -9.724,-15.911 c -13.082,0 -21.391,10.695 -21.391,22.806 0,12.11 8.309,22.805 21.391,22.805 3.624,0 7.161,-1.237 9.724,-3.359 v 21.215 h 13.348 v -62.76 H 0 v 2.651 c -2.563,-2.121 -6.1,-3.358 -9.724,-3.358" /></g><g
           transform="translate(1023.67,-1e-4)"
           id="g102"><path
             id="path104"
             style="fill:#1d1d1b;fill-opacity:1;fill-rule:nonzero;stroke:none"
             d="M 0,0 -39.601,33.501 V 0.707 h -14.142 v 63.467 l 39.6,-33.501 v 32.794 l 14.143,0 z" /></g><g
           transform="translate(1034.7188,63.4667)"
           id="g106"><path
             id="path108"
             style="fill:#1d1d1b;fill-opacity:1;fill-rule:nonzero;stroke:none"
             d="M 0,0 H 14.231 V -48.705 H 38.539 V -62.76 H 0 Z" /></g></g></g></g></svg>